<svg xmlns="http://www.w3.org/2000/svg" version="1.1" xmlns:xlink="http://www.w3.org/1999/xlink" xmlns:svgjs="http://svgjs.dev/svgjs" width="1000" height="1000" viewBox="0 0 1000 1000"><rect width="1000" height="1000" fill="#ffffff"></rect><g transform="matrix(0.7,0,0,0.7,149.57575757575756,282.1265587044535)"><svg viewBox="0 0 396 247" data-background-color="#ffffff" preserveAspectRatio="xMidYMid meet" height="623" width="1000" xmlns="http://www.w3.org/2000/svg" xmlns:xlink="http://www.w3.org/1999/xlink"><g id="tight-bounds" transform="matrix(1,0,0,1,0.2400000000000091,-0.09999999999999432)"><svg viewBox="0 0 395.52 247.2" height="247.2" width="395.52"><g><svg></svg></g><g><svg viewBox="0 0 395.52 247.2" height="247.2" width="395.52"><mask id="e0baaf77-c7cf-4262-836c-e78c123f28a0"><rect width="640" height="400" fill="white"></rect><g transform="matrix(1,0,0,1,39.55199999999999,65.77314851485148)"><svg viewBox="0 0 316.416 115.65370297029702" height="115.65370297029702" width="316.416"><g><svg viewBox="0 0 316.416 115.65370297029702" height="115.65370297029702" width="316.416"><g><svg viewBox="0 0 316.416 115.65370297029702" height="115.65370297029702" width="316.416"><g><svg viewBox="0 0 316.416 115.65370297029702" height="115.65370297029702" width="316.416"><g id="SvgjsG1065"><svg viewBox="0 0 316.416 115.65370297029702" height="115.65370297029702" width="316.416" id="SvgjsSvg1064"><g><svg viewBox="0 0 316.416 115.65370297029702" height="115.65370297029702" width="316.416"><g transform="matrix(1,0,0,1,0,0)"><svg width="316.416" viewBox="-5.35 -40.7 122.19 45.300000000000004" height="115.65370297029702" data-palette-color="#476be8"><path d="M3-0.65L3-0.65Q2.65 0.45 1.43 0.45 0.2 0.45-1.35-0.9L-1.35-0.9Q0.15-5.3 5-15.08 9.85-24.85 11.3-29.7L11.3-29.7Q11.5-30.5 11.5-30.8L11.5-30.8Q11.5-31.55 10.4-33.1L10.4-33.1 10-33.65 10.1-34.3Q14.35-35.5 19.5-35.5L19.5-35.5 22.55-35.3Q23.1-34.55 23.4-33L23.4-33Q24.2-29.2 24.2-13.45L24.2-13.45Q24.2-7.35 25.25-4.85L25.25-4.85Q25.65-3.9 26.05-3.9 26.45-3.9 28.5-4.9L28.5-4.9 29.15-5.2 30.15-3.4Q28.25-1.55 25.93-0.48 23.6 0.6 21.65 0.6L21.65 0.6Q16.6 0.6 16.6-7.25L16.6-7.25 16.6-11.2Q15.3-11.5 12.65-11.5 10-11.5 6.85-11L6.85-11Q4.35-5.2 3-0.65ZM8.45-14.6L16.7-14.6 16.75-20.4Q16.75-28 16.1-30.7L16.1-30.7Q15.7-30.7 15.5-30.6L15.5-30.6Q14.1-26.75 12.88-24.08 11.65-21.4 10.23-18.38 8.8-15.35 8.45-14.6L8.45-14.6ZM53.05-4.8L54-3.05Q49.75 0.6 46.52 0.6 43.3 0.6 42.8-2.6L42.8-2.6Q41.3-1.1 39.45-0.25 37.6 0.6 36.2 0.6L36.2 0.6Q33.8 0.6 32.1-1.5 30.4-3.6 30.4-8L30.4-8Q30.4-14.6 33.2-18.38 36-22.15 39.52-22.15 43.05-22.15 45.45-20.55L45.45-20.55Q47-28.65 47-33.3L47-33.3 46.75-35.4Q50.5-36.7 54.1-36.7L54.1-36.7Q54.5-35.85 54.5-34.75L54.5-34.75Q54.5-31.1 52.3-19.93 50.1-8.75 50.1-4.75L50.1-4.75Q50.1-3.55 50.65-3.55L50.65-3.55Q50.95-3.55 52.55-4.5L52.55-4.5 53.05-4.8ZM41.95-19.2L41.95-19.2Q40.2-19.2 38.92-15.75 37.65-12.3 37.65-8.93 37.65-5.55 38.12-4.6 38.6-3.65 39.55-3.65L39.55-3.65Q41.2-3.65 42.8-5L42.8-5Q42.95-7 45.05-18.3L45.05-18.3Q43.35-19.2 41.95-19.2ZM60.27-22.15Q62.45-22.15 63.52-21.25 64.59-20.35 64.59-17.55L64.59-17.55Q64.59-16.05 63.7-11.43 62.8-6.8 62.8-5.8L62.8-5.8Q62.8-3.8 63.6-3.8L63.6-3.8Q65.5-3.8 67.77-6.63 70.05-9.45 70.15-11.35L70.15-11.35 66.75-15.15Q66.95-17.3 67.8-19.05 68.65-20.8 69.4-21.5L69.4-21.5 70.09-22.15Q72.25-22.15 73.34-21 74.45-19.85 74.45-18.3L74.45-18.3Q74.45-14.35 72.5-9.95 70.55-5.55 67.3-2.48 64.05 0.6 60.7 0.6L60.7 0.6Q58.6 0.6 57.47-0.7 56.35-2 56.35-4.13 56.35-6.25 56.67-9.85 57-13.45 57-17L57-17Q57-17.8 56.42-18.9 55.85-20 55.25-20.65L55.25-20.65 55.4-21.25Q58.1-22.15 60.27-22.15ZM85.44-19.05Q85.44-16.95 84.09-11.83 82.74-6.7 82.74-5.13 82.74-3.55 83.19-3.55L83.19-3.55Q83.49-3.55 85.49-4.5L85.49-4.5 86.09-4.8 86.94-3.05Q86.49-2.65 85.74-2.05 84.99-1.45 82.94-0.43 80.89 0.6 79.14 0.6 77.39 0.6 76.39-0.48 75.39-1.55 75.39-3.38 75.39-5.2 76.64-9.88 77.89-14.55 77.89-15.95L77.89-15.95Q77.89-18.05 76.59-19.9L76.59-19.9 76.14-20.5 76.19-21.15Q78.84-21.9 84.79-21.9L84.79-21.9Q85.44-21.15 85.44-19.05ZM79.74-27.38Q78.74-28.35 78.74-30 78.74-31.65 80.12-32.9 81.49-34.15 83.29-34.15 85.09-34.15 86.09-33.15 87.09-32.15 87.09-30.53 87.09-28.9 85.67-27.65 84.24-26.4 82.49-26.4 80.74-26.4 79.74-27.38ZM94.34-33L94.34-33Q94.34-34.65 94.04-35.35L94.04-35.35Q97.94-36.7 101.39-36.7L101.39-36.7Q101.84-36.25 101.84-34.4L101.84-34.4Q101.84-30.25 99.09-18.5L99.09-18.5Q103.54-22.15 107.89-22.15L107.89-22.15Q109.84-22.15 111.19-20.95 112.54-19.75 112.54-17.45L112.54-17.45Q112.54-13.15 105.49-11.2L105.49-11.2Q107.14-6 108.39-4.15L108.39-4.15Q108.94-3.35 109.19-3.35L109.19-3.35Q109.74-3.35 111.49-4.2L111.49-4.2 112.04-4.45 112.84-2.75Q111.64-1.65 109.52-0.53 107.39 0.6 105.64 0.6L105.64 0.6Q101.74 0.6 100.19-6.5L100.19-6.5Q99.49-9.55 99.34-12.2L99.34-12.2Q102.54-12.95 104.11-14.03 105.69-15.1 105.69-16.78 105.69-18.45 103.99-18.45 102.29-18.45 98.29-15.05L98.29-15.05Q95.79-4.5 95.79-0.6L95.79-0.6Q93.04 0.2 88.64 0.2L88.64 0.2Q88.59-0.65 88.59-1.3L88.59-1.3Q88.59-3.45 91.47-16 94.34-28.55 94.34-33Z" opacity="1" transform="matrix(1,0,0,1,0,0)" fill="black" class="wordmark-text-0" id="SvgjsPath1063" stroke-width="7" stroke="black" stroke-linejoin="round"></path></svg></g></svg></g></svg></g></svg></g></svg></g></svg></g></svg></g></mask><g transform="matrix(1,0,0,1,39.55199999999999,65.77314851485148)"><svg viewBox="0 0 316.416 115.65370297029702" height="115.65370297029702" width="316.416"><g><svg viewBox="0 0 316.416 115.65370297029702" height="115.65370297029702" width="316.416"><g><svg viewBox="0 0 316.416 115.65370297029702" height="115.65370297029702" width="316.416"><g><svg viewBox="0 0 316.416 115.65370297029702" height="115.65370297029702" width="316.416"><g id="textblocktransform"><svg viewBox="0 0 316.416 115.65370297029702" height="115.65370297029702" width="316.416" id="textblock"><g><svg viewBox="0 0 316.416 115.65370297029702" height="115.65370297029702" width="316.416"><g transform="matrix(1,0,0,1,0,0)"><svg width="316.416" viewBox="-5.35 -40.7 122.19 45.300000000000004" height="115.65370297029702" data-palette-color="#476be8"><path d="M3-0.65L3-0.65Q2.65 0.45 1.43 0.45 0.2 0.45-1.35-0.9L-1.35-0.9Q0.15-5.3 5-15.08 9.85-24.85 11.3-29.7L11.3-29.7Q11.5-30.5 11.5-30.8L11.5-30.8Q11.5-31.55 10.4-33.1L10.4-33.1 10-33.65 10.1-34.3Q14.35-35.5 19.5-35.5L19.5-35.5 22.55-35.3Q23.1-34.55 23.4-33L23.4-33Q24.2-29.2 24.2-13.45L24.2-13.45Q24.2-7.35 25.25-4.85L25.25-4.85Q25.65-3.9 26.05-3.9 26.45-3.9 28.5-4.9L28.5-4.9 29.15-5.2 30.15-3.4Q28.25-1.55 25.93-0.48 23.6 0.6 21.65 0.6L21.65 0.6Q16.6 0.6 16.6-7.25L16.6-7.25 16.6-11.2Q15.3-11.5 12.65-11.5 10-11.5 6.85-11L6.85-11Q4.35-5.2 3-0.65ZM8.45-14.6L16.7-14.6 16.75-20.4Q16.75-28 16.1-30.7L16.1-30.7Q15.7-30.7 15.5-30.6L15.5-30.6Q14.1-26.75 12.88-24.08 11.65-21.4 10.23-18.38 8.8-15.35 8.45-14.6L8.45-14.6ZM53.05-4.8L54-3.05Q49.75 0.6 46.52 0.6 43.3 0.6 42.8-2.6L42.8-2.6Q41.3-1.1 39.45-0.25 37.6 0.6 36.2 0.6L36.2 0.6Q33.8 0.6 32.1-1.5 30.4-3.6 30.4-8L30.4-8Q30.4-14.6 33.2-18.38 36-22.15 39.52-22.15 43.05-22.15 45.45-20.55L45.45-20.55Q47-28.65 47-33.3L47-33.3 46.75-35.4Q50.5-36.7 54.1-36.7L54.1-36.7Q54.5-35.85 54.5-34.75L54.5-34.75Q54.5-31.1 52.3-19.93 50.1-8.75 50.1-4.75L50.1-4.75Q50.1-3.55 50.65-3.55L50.65-3.55Q50.95-3.55 52.55-4.5L52.55-4.5 53.05-4.8ZM41.95-19.2L41.95-19.2Q40.2-19.2 38.92-15.75 37.65-12.3 37.65-8.93 37.65-5.55 38.12-4.6 38.6-3.65 39.55-3.65L39.55-3.65Q41.2-3.65 42.8-5L42.8-5Q42.95-7 45.05-18.3L45.05-18.3Q43.35-19.2 41.95-19.2ZM60.27-22.15Q62.45-22.15 63.52-21.25 64.59-20.35 64.59-17.55L64.59-17.55Q64.59-16.05 63.7-11.43 62.8-6.8 62.8-5.8L62.8-5.8Q62.8-3.8 63.6-3.8L63.6-3.8Q65.5-3.8 67.77-6.63 70.05-9.45 70.15-11.35L70.15-11.35 66.75-15.15Q66.95-17.3 67.8-19.05 68.65-20.8 69.4-21.5L69.4-21.5 70.09-22.15Q72.25-22.15 73.34-21 74.45-19.85 74.45-18.3L74.45-18.3Q74.45-14.35 72.5-9.95 70.55-5.55 67.3-2.48 64.05 0.6 60.7 0.6L60.7 0.6Q58.6 0.6 57.47-0.7 56.35-2 56.35-4.13 56.35-6.25 56.67-9.85 57-13.45 57-17L57-17Q57-17.8 56.42-18.9 55.85-20 55.25-20.65L55.25-20.65 55.4-21.25Q58.1-22.15 60.27-22.15ZM85.44-19.05Q85.44-16.95 84.09-11.83 82.74-6.7 82.74-5.13 82.74-3.55 83.19-3.55L83.19-3.55Q83.49-3.55 85.49-4.5L85.49-4.5 86.09-4.8 86.94-3.05Q86.49-2.65 85.74-2.05 84.99-1.45 82.94-0.43 80.89 0.6 79.14 0.6 77.39 0.6 76.39-0.48 75.39-1.55 75.39-3.38 75.39-5.2 76.64-9.88 77.89-14.55 77.89-15.95L77.89-15.95Q77.89-18.05 76.59-19.9L76.59-19.9 76.14-20.5 76.19-21.15Q78.84-21.9 84.79-21.9L84.79-21.9Q85.44-21.15 85.44-19.05ZM79.74-27.38Q78.74-28.35 78.74-30 78.74-31.65 80.12-32.9 81.49-34.15 83.29-34.15 85.09-34.15 86.09-33.15 87.09-32.15 87.09-30.53 87.09-28.9 85.67-27.65 84.24-26.4 82.49-26.4 80.74-26.4 79.74-27.38ZM94.34-33L94.34-33Q94.34-34.65 94.04-35.35L94.04-35.35Q97.94-36.7 101.39-36.7L101.39-36.7Q101.84-36.25 101.84-34.4L101.84-34.4Q101.84-30.25 99.09-18.5L99.09-18.5Q103.54-22.15 107.89-22.15L107.89-22.15Q109.84-22.15 111.19-20.95 112.54-19.75 112.54-17.45L112.54-17.45Q112.54-13.15 105.49-11.2L105.49-11.2Q107.14-6 108.39-4.15L108.39-4.15Q108.94-3.35 109.19-3.35L109.19-3.35Q109.74-3.35 111.49-4.2L111.49-4.2 112.04-4.45 112.84-2.75Q111.64-1.65 109.52-0.53 107.39 0.6 105.64 0.6L105.64 0.6Q101.74 0.6 100.19-6.5L100.19-6.5Q99.49-9.55 99.34-12.2L99.34-12.2Q102.54-12.95 104.11-14.03 105.69-15.1 105.69-16.78 105.69-18.45 103.99-18.45 102.29-18.45 98.29-15.05L98.29-15.05Q95.79-4.5 95.79-0.6L95.79-0.6Q93.04 0.2 88.64 0.2L88.64 0.2Q88.59-0.65 88.59-1.3L88.59-1.3Q88.59-3.45 91.47-16 94.34-28.55 94.34-33Z" opacity="1" transform="matrix(1,0,0,1,0,0)" fill="#000000" class="wordmark-text-0" data-fill-palette-color="primary" id="text-0"></path></svg></g></svg></g></svg></g></svg></g></svg></g></svg></g></svg></g><g mask="url(#e0baaf77-c7cf-4262-836c-e78c123f28a0)"><g transform="matrix(2.7244444444444444, 0, 0, 2.7244444444444444, 90.96177777777775, 1)"><svg xmlns="http://www.w3.org/2000/svg" xmlns:xlink="http://www.w3.org/1999/xlink" version="1.1" x="0" y="0" viewBox="10.1 5.2 78.4 90" enable-background="new 0 0 100 100" xml:space="preserve" height="90" width="78.4" class="icon-none" data-fill-palette-color="accent" id="none"><polygon fill-rule="evenodd" clip-rule="evenodd" fill="#000000" points="88.5,28.2 68.4,59.9 68.5,22.3 " data-fill-palette-color="accent"></polygon><polygon fill-rule="evenodd" clip-rule="evenodd" fill="#000000" points="49.8,5.2 67.2,38.5 34.7,19.6 " data-fill-palette-color="accent"></polygon><polygon fill-rule="evenodd" clip-rule="evenodd" fill="#000000" points="67.8,38.3 67.8,22.3 60.8,24.5 " data-fill-palette-color="accent"></polygon><polygon fill-rule="evenodd" clip-rule="evenodd" fill="#000000" points="88.2,73.2 50.6,71.7 83.2,52.9 " data-fill-palette-color="accent"></polygon><polygon fill-rule="evenodd" clip-rule="evenodd" fill="#000000" points="69.1,60.3 82.8,52.3 77.4,47.4 " data-fill-palette-color="accent"></polygon><polygon fill-rule="evenodd" clip-rule="evenodd" fill="#000000" points="48.7,95.2 31.5,61.9 63.9,80.9 " data-fill-palette-color="accent"></polygon><polygon fill-rule="evenodd" clip-rule="evenodd" fill="#000000" points="50.5,72.2 64.2,80.2 65.8,73.1 " data-fill-palette-color="accent"></polygon><polygon fill-rule="evenodd" clip-rule="evenodd" fill="#000000" points="10.1,72 30.5,40.4 30.1,78 " data-fill-palette-color="accent"></polygon><polygon fill-rule="evenodd" clip-rule="evenodd" fill="#000000" points="30.9,62.1 30.8,78 37.8,75.8 " data-fill-palette-color="accent"></polygon><polygon fill-rule="evenodd" clip-rule="evenodd" fill="#000000" points="11,27 48.5,28.9 15.8,47.3 " data-fill-palette-color="accent"></polygon><polygon fill-rule="evenodd" clip-rule="evenodd" fill="#000000" points="30,40.1 16.1,47.9 21.5,52.9 " data-fill-palette-color="accent"></polygon><polygon fill-rule="evenodd" clip-rule="evenodd" fill="#000000" points="48.2,28.3 34.5,20.2 32.9,27.4 " data-fill-palette-color="accent"></polygon></svg></g></g></svg></g><defs></defs></svg><rect width="395.52" height="247.2" fill="none" stroke="none" visibility="hidden"></rect></g></svg></g></svg>